<svg width="53" height="66" viewBox="0 0 53 66" fill="none" xmlns="http://www.w3.org/2000/svg">
<path d="M39.6966 32.8228C36.104 35.7046 31.5091 37.4335 26.5021 37.4335C21.4909 37.4335 16.8963 35.7046 13.3075 32.8228C5.35451 37.2913 0 45.6756 0 55.2799C0 69.5734 53 69.5734 53 55.2799C53 45.6756 47.6455 37.2913 39.6966 32.8228ZM16.6375 31.2479C19.4461 33.1228 22.8447 34.2164 26.5021 34.2164C30.1595 34.2164 33.5548 33.1228 36.3625 31.2479C40.9816 28.169 44.0125 22.9818 44.0125 17.1081C44.0125 7.65805 36.1726 0 26.5021 0C16.8274 0 8.98749 7.65805 8.98749 17.1081C8.98749 22.9818 12.0184 28.1652 16.6375 31.2479Z" fill="#97B788"/>
</svg>
