<svg width="1671" height="469" viewBox="0 0 1671 469" fill="none" xmlns="http://www.w3.org/2000/svg">
<path d="M146.019 292.572V248.503C146.019 238.764 148.908 215.066 137.903 185.119C136.095 184.656 134.256 184.32 132.401 184.113C106.593 180.412 99.6455 180.282 91.4324 178.627C80.6213 176.267 70.3054 172.038 60.9497 166.129C49.744 159.583 39.7685 151.129 31.4733 141.148C25.2404 133.471 15.2418 123.423 13.4888 108.166C11.7358 93.2979 15.4204 92.113 16.4917 57.7022C17.2059 34.3776 14.5277 29.2971 12.9857 25.9697C9.10414 17.8231 4.76895 9.90054 0.000488281 2.23928C2.62653 1.66296 5.29945 1.32614 7.98638 1.23293C13.7486 0.924533 7.98638 1.23289 26.9772 0.72971C40.2358 0.224418 53.5136 0.729089 66.6956 2.23928C91.4487 5.09602 104.645 7.33593 121.412 16.7177C146.782 30.9203 158.972 52.9302 162.883 60.2019C169.133 71.8074 170.723 82.9259 171.762 87.1137C173.385 93.801 175.447 102.55 175.382 121.654C175.382 141.311 174.878 144.638 174.878 144.638C174.878 144.638 172.281 136.425 167.883 126.15C162.835 114.366 156.667 107.127 146.895 95.6677C138.65 85.4667 129.261 76.2464 118.912 68.1878C107.28 59.3562 94.5095 52.133 80.9469 46.7135C68.8707 41.6006 51.5192 38.2082 51.5192 38.2082C51.5192 38.2082 61.0146 44.7008 76.0125 56.6959C87.1142 65.6851 97.3225 75.7249 106.495 86.6754C114.477 96.1459 121.809 106.146 128.44 116.606C139.514 133.367 149.365 150.905 157.917 169.083C164.279 182.068 165.643 186.369 166.422 189.064C169.694 200.107 171.537 211.524 171.908 223.036C176.347 214.946 181.359 207.184 186.906 199.809C192.444 191.823 199.058 184.64 206.562 178.464C220.327 167.524 226.543 162.606 240.373 156.584C249.653 152.598 259.381 149.747 269.346 148.095C282.041 145.809 294.934 144.803 307.831 145.093C307.831 145.093 297.67 136.311 288.353 133.601C277.851 130.533 269.054 131.328 261.376 132.107C251.577 132.981 241.926 135.075 232.646 138.34C222.719 141.629 213.361 146.436 204.907 152.591C197.588 157.811 190.884 163.845 184.926 170.576C184.926 170.576 185.672 156.471 189.422 147.592C193.971 137.052 200.595 127.535 208.9 119.609C215.932 112.826 224.038 107.254 232.89 103.118C243.45 98.3732 254.811 95.6638 266.375 95.132C280.527 93.5685 294.85 95.1027 308.35 99.6282C316.612 102.501 323.186 106.705 336.317 115.113C352.548 125.534 364.803 141.603 364.803 141.603C361.264 144.538 357.924 147.704 354.804 151.082C350.536 155.578 349.172 158.548 345.812 163.58C340.704 171.29 334.664 178.339 327.828 184.567C320.962 190.573 315.005 193.527 305.85 198.056C296.983 202.679 287.587 206.206 277.867 208.558C269.409 210.85 260.654 211.857 251.897 211.544C238.657 210.789 225.537 208.612 212.763 205.052C208.584 209.667 204.708 214.546 201.157 219.66C199.031 222.906 197.911 231.736 197.911 248.503V292.572C197.814 297.1 163.289 292.572 146.019 292.572Z" fill="#563631"/>
<path d="M146.019 466.151V281.892H197.814V422.326H343.686V466.151H146.019Z" fill="#563631"/>
<path d="M473.538 468.943C452.036 468.943 432.716 464.231 415.575 454.806C398.833 445.753 384.859 432.329 375.143 415.964C365.306 399.483 360.393 380.758 360.404 359.787C360.404 338.285 365.317 319.43 375.143 303.22C384.912 287.064 398.798 273.794 415.38 264.767C432.358 255.353 451.744 250.641 473.538 250.63C495.58 250.63 515.166 255.342 532.296 264.767C548.937 273.741 562.845 287.043 572.55 303.269C582.289 319.5 587.158 338.356 587.158 359.835C587.158 381.077 582.289 399.868 572.55 416.207C562.849 432.536 548.867 445.901 532.117 454.854C514.804 464.236 495.277 468.932 473.538 468.943ZM473.538 426.741C484.949 426.963 496.215 424.163 506.195 418.626C515.831 413.112 523.658 404.919 528.725 395.041C534.307 384.143 537.096 372.029 536.841 359.787C536.841 346.25 534.135 334.498 528.725 324.532C523.557 314.853 515.751 306.839 506.212 301.418C496.3 296.06 485.211 293.254 473.944 293.254C462.676 293.254 451.587 296.06 441.675 301.418C432.106 306.869 424.239 314.871 418.951 324.532C413.389 334.487 410.603 346.239 410.592 359.787C410.352 372.056 413.228 384.186 418.951 395.041C424.147 404.87 432.028 413.02 441.675 418.545C451.389 424.031 462.382 426.848 473.538 426.709V426.741Z" fill="#563631"/>
<path d="M732.43 468.943C710.117 468.943 690.261 464.231 672.861 454.806C655.996 445.87 641.884 432.509 632.038 416.159C622.202 399.83 617.289 381.039 617.3 359.787C617.3 338.285 622.213 319.43 632.038 303.22C641.928 286.954 656.034 273.668 672.861 264.767C690.261 255.353 710.117 250.641 732.43 250.63C752.86 250.63 771.05 254.883 787 263.388C802.625 271.557 815.199 284.546 822.856 300.428L785.004 322.746C779.258 313.497 771.232 305.879 761.696 300.623C752.576 295.726 742.375 293.192 732.024 293.254C720.489 293.072 709.101 295.867 698.961 301.37C689.221 306.727 681.205 314.743 675.847 324.483C670.285 334.438 667.499 346.19 667.488 359.738C667.477 373.286 670.264 385.102 675.847 395.187C681.153 405.02 689.177 413.117 698.961 418.512C709.098 424.022 720.488 426.818 732.024 426.628C742.376 426.7 752.58 424.166 761.696 419.259C771.308 413.933 779.347 406.168 785.004 396.746L822.856 419.064C815.078 434.812 802.531 447.705 787 455.909C771.061 464.599 752.871 468.943 732.43 468.943Z" fill="#563631"/>
<path d="M930.405 468.943C914.477 468.943 900.534 466.238 888.577 460.827C877.394 456.006 867.797 448.13 860.886 438.103C854.378 428.39 850.982 416.925 851.147 405.235C850.983 393.895 853.948 382.73 859.717 372.966C865.431 363.411 874.791 355.837 887.798 350.242C900.805 344.648 918.069 341.861 939.592 341.883H1001.27V374.947H943.163C926.423 374.947 915.061 377.652 909.077 383.062C906.182 385.625 903.88 388.788 902.333 392.332C900.785 395.875 900.029 399.713 900.117 403.579C900.025 407.712 900.96 411.803 902.838 415.486C904.716 419.169 907.479 422.328 910.879 424.68C918.042 430.004 927.998 432.66 940.745 432.65C952.25 432.839 963.597 429.954 973.614 424.29C983.31 418.706 990.824 409.996 994.925 399.586L1002.9 429.468C998.158 441.907 989.108 452.23 977.395 458.555C965.2 465.48 949.537 468.943 930.405 468.943ZM997.344 466.151V422.732L994.942 413.967V338.669C994.942 324.083 990.494 312.721 981.599 304.583C972.705 296.446 959.227 292.393 941.167 292.426C929.393 292.442 917.696 294.327 906.513 298.009C895.814 301.339 885.817 306.604 877.02 313.543L857.542 277.298C869.891 268.209 883.797 261.454 898.575 257.366C914.485 252.834 930.954 250.566 947.497 250.63C978.564 250.63 1002.46 258.069 1019.19 272.948C1035.92 287.827 1044.29 310.665 1044.3 341.461V466.151H997.344Z" fill="#563631"/>
<path d="M1108.48 466.152V170.56H1157.87V466.152H1108.48Z" fill="#563631"/>
<path d="M1323.19 468.943C1299.56 468.943 1278.91 464.231 1261.25 454.806C1244.23 445.996 1230.01 432.612 1220.19 416.159C1210.45 399.83 1205.58 381.039 1205.58 359.787C1205.58 338.534 1210.29 319.744 1219.72 303.415C1228.99 287.234 1242.49 273.876 1258.77 264.767C1275.36 255.353 1294.29 250.641 1315.58 250.63C1336.29 250.63 1354.75 255.213 1370.96 264.378C1387.02 273.406 1400.25 286.712 1409.2 302.814C1418.49 319.284 1423.13 338.805 1423.14 361.377C1423.14 363.244 1423.06 365.565 1422.93 368.357C1422.8 371.149 1422.61 373.6 1422.35 375.726H1245.12V342.662H1396.07L1376.15 353.018C1376.61 341.859 1374.06 330.783 1368.77 320.945C1363.86 311.789 1356.47 304.197 1347.46 299.032C1337.71 293.677 1326.71 291 1315.59 291.273C1304.41 291.076 1293.35 293.748 1283.49 299.032C1274.23 304.066 1266.69 311.761 1261.85 321.123C1256.64 331.358 1254.04 342.721 1254.27 354.203V362.173C1254.04 374.023 1257 385.718 1262.84 396.032C1268.59 405.901 1277.11 413.869 1287.34 418.95C1297.96 424.361 1310.31 427.066 1324.39 427.066C1335.44 427.234 1346.41 425.203 1356.66 421.093C1366.28 417.066 1374.96 411.098 1382.16 403.563L1409.25 434.744C1399.26 445.978 1386.76 454.693 1372.76 460.178C1358.31 466.022 1341.78 468.943 1323.19 468.943Z" fill="#97B788"/>
<path d="M1570.98 468.943C1547.35 468.943 1526.7 464.231 1509.04 454.806C1492.03 445.996 1477.82 432.611 1468.01 416.159C1458.27 399.83 1453.4 381.039 1453.4 359.787C1453.4 338.534 1458.11 319.744 1467.54 303.415C1476.81 287.238 1490.31 273.881 1506.57 264.767C1523.18 255.353 1542.12 250.641 1563.38 250.63C1584.1 250.63 1602.55 255.213 1618.75 264.378C1634.81 273.402 1648.05 286.708 1656.99 302.814C1666.29 319.284 1670.93 338.805 1670.93 361.377C1670.93 363.244 1670.93 365.565 1670.74 368.357C1670.54 371.149 1670.4 373.6 1670.14 375.726H1492.87V342.662H1643.83L1623.91 353.018C1624.36 341.861 1621.82 330.787 1616.54 320.945C1611.63 311.789 1604.25 304.197 1595.23 299.032C1585.48 293.677 1574.49 291 1563.37 291.273C1552.19 291.08 1541.15 293.751 1531.29 299.032C1522.03 304.067 1514.48 311.761 1509.63 321.123C1504.42 331.355 1501.83 342.711 1502.06 354.187V362.156C1501.83 374.007 1504.79 385.702 1510.63 396.015C1516.37 405.883 1524.86 413.857 1535.08 418.95C1545.69 424.361 1558.04 427.066 1572.13 427.066C1583.18 427.234 1594.15 425.203 1604.4 421.093C1614.01 417.07 1622.69 411.102 1629.88 403.563L1657.02 434.744C1647.06 445.997 1634.57 454.734 1620.58 460.243C1606.11 466.043 1589.57 468.943 1570.98 468.943Z" fill="#97B788"/>
</svg>
