<svg width="77" height="65" viewBox="0 0 77 65" fill="none" xmlns="http://www.w3.org/2000/svg">
<path d="M1.13706e-07 2.61334C9.79584e-05 3.25141 0.252574 3.86331 0.701906 4.31449C1.15124 4.76567 1.76064 5.01919 2.39609 5.01929H12.3008L24.4248 54.0597C24.4944 54.3396 24.6115 54.6055 24.7709 54.8456C25.1075 55.4926 25.6935 55.925 26.3662 55.925H28.9808C28.072 56.3818 27.3434 57.1334 26.913 58.0578C26.4826 58.9823 26.3756 60.0256 26.6093 61.0188C26.8431 62.0119 27.4039 62.8967 28.2009 63.5299C28.9979 64.1632 29.9845 64.5077 31.0008 64.5077C32.0171 64.5077 33.0037 64.1632 33.8007 63.5299C34.5978 62.8967 35.1586 62.0119 35.3923 61.0188C35.6261 60.0256 35.5191 58.9823 35.0887 58.0578C34.6583 57.1334 33.9297 56.3818 33.0209 55.925H58.2852C57.3763 56.3818 56.6476 57.1334 56.2171 58.058C55.7866 58.9825 55.6796 60.0259 55.9134 61.0192C56.1471 62.0124 56.708 62.8974 57.505 63.5306C58.3021 64.1639 59.2888 64.5084 60.3052 64.5084C61.3217 64.5084 62.3083 64.1639 63.1054 63.5306C63.9025 62.8974 64.4633 62.0124 64.6971 61.0192C64.9308 60.0259 64.8238 58.9825 64.3934 58.058C63.9629 57.1334 63.2342 56.3818 62.3253 55.925H67.1462C68.1928 55.925 69.0423 54.8827 69.0423 53.598C69.0423 52.3133 68.1935 51.2699 67.1462 51.2699H28.5092L26.6083 43.5796H67.5071V43.5766C68.7618 43.7063 69.9534 42.867 70.256 41.5779L76.9147 13.1364C76.9612 12.9351 76.984 12.7291 76.9827 12.5224C76.9939 12.4364 76.9996 12.3498 77 12.2631C77 10.978 75.8047 9.93567 74.3294 9.93567H18.2919L16.373 2.17499C16.3663 2.14831 16.3571 2.12311 16.3497 2.09681C16.2326 1.56133 15.9368 1.08208 15.5114 0.738409C15.086 0.394742 14.5565 0.207269 14.0105 0.207031H2.39609C2.08138 0.206983 1.76976 0.269194 1.479 0.39011C1.18825 0.511025 0.924072 0.688276 0.70156 0.911738C0.479048 1.1352 0.302563 1.40049 0.182187 1.69246C0.0618108 1.98443 -9.68413e-05 2.29735 1.13706e-07 2.61334ZM69.0674 24.3206H60.9167L62.0053 14.5904H71.345L69.0674 24.3206ZM59.2996 38.7755L60.379 29.1261H67.9422L65.6823 38.7755H59.2996ZM56.1013 24.3206H47.9565L47.9882 14.5904H57.1903L56.1013 24.3206ZM47.9089 38.7755L47.9406 29.1261H55.5636L54.4838 38.7755H47.9089ZM35.8284 29.1261H43.1558L43.1241 38.7755H37.0167L35.8284 29.1261ZM34.0364 14.5904H43.2023L43.1702 24.3206H35.2361L34.0364 14.5904ZM23.0346 29.1261H31.0056L32.1943 38.7755H25.4215L23.0346 29.1261ZM19.4425 14.5904H29.2162L30.4144 24.3206H21.8482L19.4425 14.5904Z" fill="#97B788"/>
</svg>
