<svg width="97" height="125" viewBox="0 0 97 125" fill="none" xmlns="http://www.w3.org/2000/svg">
<path d="M38.8402 78.2166V66.5183C38.8402 63.9463 39.5995 57.6388 36.6934 49.6874C36.2136 49.5648 35.7259 49.4761 35.2337 49.4217C28.3814 48.4384 26.5326 48.4062 24.3554 47.962C20.5952 47.2028 17.9473 45.6387 16.2636 44.646C13.2874 42.9088 10.6381 40.6642 8.43567 38.0138C6.78238 35.9771 4.13636 33.3102 3.65993 29.2577C3.19678 25.3114 4.17243 24.9982 4.45715 15.8586C4.64697 9.66687 3.93896 8.31919 3.52706 7.43465C2.49589 5.27133 1.34444 3.16742 0.078125 1.1328C0.775957 0.979921 1.48627 0.890974 2.20025 0.86706C3.73016 0.785439 2.20026 0.867059 7.24174 0.736087C12.3554 0.601319 15.3753 0.853772 17.7878 1.1328C24.3573 1.89206 27.8613 2.48618 32.3144 4.98035C39.0471 8.75007 42.2872 14.5926 43.3236 16.523C44.9826 19.6037 45.4116 22.5382 45.6792 23.6695C46.1063 25.4424 46.6587 27.7676 46.6416 32.8395C46.6226 38.0575 46.5087 38.942 46.5087 38.942C46.5087 38.942 45.8159 36.7591 44.6504 34.0334C43.3103 30.9015 41.6722 28.9824 39.0794 25.9416C37.2401 23.7777 35.1217 21.3101 31.6519 18.6527C27.5007 15.4752 23.8353 13.9073 21.569 12.9469C18.3554 11.5859 13.7429 10.6805 13.7429 10.6805C13.7429 10.6805 16.2636 12.3888 20.2422 15.5891C23.1905 17.9754 25.9011 20.6414 28.3359 23.5499C30.8034 26.4256 32.2992 28.6863 34.1727 31.5089C38.0354 37.3305 40.279 41.9012 41.9987 45.4394C43.6862 48.9073 44.0487 50.031 44.2556 50.7447C45.7153 55.7938 45.7134 59.7666 45.7134 59.7666C46.8912 57.6166 48.2234 55.5549 49.6995 53.5976C50.7853 52.1322 52.3835 49.9399 54.9156 47.9297C58.5753 45.0275 60.2304 43.7197 63.8939 42.1214C66.3586 41.0623 68.9424 40.3052 71.589 39.8664C77.7181 38.8414 81.8029 39.0711 81.8029 39.0711C81.8029 39.0711 79.1056 36.7421 76.6304 36.0189C73.8421 35.2065 71.5054 35.4172 69.4668 35.6222C66.8647 35.8538 64.3019 36.4105 61.8382 37.2792C59.1808 38.2283 56.9485 39.2476 54.4752 41.0603C51.0035 43.6077 49.1604 45.8361 49.1604 45.8361C49.1604 45.8361 49.3503 42.091 50.3544 39.7335C51.5626 36.9372 53.3203 34.4121 55.523 32.308C57.3904 30.5084 59.5421 29.0295 61.8913 27.9309C65.5149 26.2567 68.6089 25.9815 70.7803 25.8087C73.0866 25.6189 77.1505 25.3418 81.9225 27.0027C84.1167 27.7619 85.863 28.8818 89.3518 31.1141C93.6758 33.8797 96.9216 38.1467 96.9216 38.1467C95.9815 38.9277 95.0938 39.7698 94.2642 40.6674C93.1253 41.8595 92.7666 42.6453 91.8764 43.9835C91.3601 44.7598 89.5284 47.4305 87.1006 49.5546C85.2784 51.149 83.684 51.9329 81.2638 53.1364C79.5555 53.9867 77.179 55.1408 73.8345 55.9228C72.016 56.348 69.7724 56.8719 66.9366 56.7182C63.4213 56.5148 59.9379 55.9351 56.5461 54.989C56.5461 54.989 54.5208 57.2212 53.4654 58.8593C52.896 59.7343 52.5847 62.0653 52.5847 66.5183V78.2166C52.5885 79.4181 43.4223 78.2166 38.8402 78.2166Z" fill="#563631"/>
<path d="M38.8403 124.302V75.3809H52.5886V112.668H91.2994V124.302H38.8403Z" fill="#563631"/>
</svg>
