<svg width="74" height="94" viewBox="0 0 74 94" fill="none" xmlns="http://www.w3.org/2000/svg">
<path d="M29.3079 58.6111V49.766C29.3079 47.8213 29.882 43.0522 27.6847 37.0402C27.322 36.9476 26.9532 36.8804 26.5811 36.8393C21.4 36.0959 20.0022 36.0715 18.356 35.7357C15.5129 35.1616 13.5108 33.979 12.2378 33.2284C9.98751 31.9149 7.98439 30.2178 6.31912 28.2139C5.06907 26.6739 3.06842 24.6575 2.70819 21.5933C2.35801 18.6096 3.0957 18.3728 3.31097 11.4624C3.45449 6.78079 2.91917 5.76181 2.60773 5.09301C1.82807 3.45733 0.95746 1.86657 0 0.328198C0.527629 0.212607 1.0647 0.145355 1.60454 0.127273C2.7613 0.0655604 1.60454 0.127273 5.41639 0.0282452C9.28278 -0.0736529 11.5662 0.117226 13.3903 0.328198C18.3575 0.902273 21.0068 1.35149 24.3738 3.23732C29.4644 6.0876 31.9142 10.5051 32.6978 11.9647C33.9522 14.294 34.2765 16.5128 34.4789 17.3682C34.8018 18.7086 35.2194 20.4667 35.2065 24.3015C35.1922 28.2469 35.1061 28.9157 35.1061 28.9157C35.1061 28.9157 34.5822 27.2652 33.701 25.2043C32.6878 22.8362 31.4492 21.3852 29.4887 19.0861C28.0981 17.45 26.4964 15.5842 23.8729 13.575C20.7341 11.1725 17.9628 9.987 16.2492 9.26079C13.8194 8.23177 10.3319 7.54718 10.3319 7.54718C10.3319 7.54718 12.2378 8.83885 15.246 11.2586C17.4752 13.0629 19.5247 15.0786 21.3656 17.2777C23.2313 19.452 24.3623 21.1614 25.7788 23.2955C28.6994 27.6972 30.3958 31.1531 31.6961 33.8283C32.9719 36.4504 33.2461 37.3 33.4025 37.8396C34.5062 41.6572 34.5047 44.6611 34.5047 44.6611C35.3953 43.0355 36.4025 41.4766 37.5186 39.9967C38.3395 38.8888 39.548 37.2311 41.4625 35.7113C44.2295 33.5169 45.481 32.528 48.2509 31.3196C50.1145 30.5188 52.0681 29.9463 54.0692 29.6146C58.7034 28.8396 61.7919 29.0133 61.7919 29.0133C61.7919 29.0133 59.7525 27.2523 57.881 26.7055C55.7727 26.0912 54.006 26.2505 52.4646 26.4055C50.4972 26.5806 48.5594 27.0016 46.6966 27.6584C44.6874 28.376 42.9996 29.1467 41.1295 30.5173C38.5046 32.4433 37.111 34.1282 37.111 34.1282C37.111 34.1282 37.2545 31.2966 38.0138 29.5141C38.9273 27.3998 40.2562 25.4906 41.9218 23.8997C43.3337 22.539 44.9606 21.4208 46.7368 20.5901C49.4766 19.3243 51.8159 19.1162 53.4578 18.9856C55.2015 18.8421 58.2743 18.6326 61.8823 19.8883C63.5414 20.4624 64.8618 21.3092 67.4996 22.997C70.769 25.088 73.2231 28.3143 73.2231 28.3143C72.5123 28.9049 71.8411 29.5416 71.2139 30.2202C70.3528 31.1215 70.0815 31.7157 69.4084 32.7275C69.0181 33.3145 67.6331 35.3338 65.7975 36.9398C64.4197 38.1453 63.2142 38.7381 61.3843 39.648C60.0926 40.2909 58.2958 41.1635 55.767 41.7548C54.3921 42.0763 52.6957 42.4724 50.5515 42.3562C47.8936 42.2024 45.2598 41.7641 42.6953 41.0487C42.6953 41.0487 41.164 42.7365 40.366 43.9751C39.9355 44.6367 39.7001 46.3991 39.7001 49.766V58.6111C39.703 59.5195 32.7725 58.6111 29.3079 58.6111Z" fill="#97B788"/>
<path d="M29.3081 93.4558V56.4668H39.7032V84.6596H68.9723V93.4558H29.3081Z" fill="#97B788"/>
</svg>
