<svg id="Layer_1" data-name="Layer 1" xmlns="http://www.w3.org/2000/svg" xmlns:xlink="http://www.w3.org/1999/xlink" viewBox="0 0 257.13 249.51"><defs><style>.cls-1{fill:#fff;}.cls-2{fill:#e5e0da;}.cls-3{mask:url(#mask);}.cls-4{fill:#ff5b5a;}.cls-5{fill:#f44747;}.cls-6{fill:#fbd3a8;}.cls-22,.cls-7{fill:#f8a364;}.cls-7{opacity:0.6;}.cls-13,.cls-7{isolation:isolate;}.cls-8{fill:#97b788;}.cls-9{fill:#4885b7;}.cls-10{fill:#568fc5;}.cls-11{fill:#d48d5f;}.cls-12{fill:#ef8a5b;}.cls-13{fill:#231f20;opacity:0.1;}.cls-14{fill:#a7704c;}.cls-15{fill:#c78456;}.cls-16{mask:url(#mask-2);}.cls-17{fill:#563631;}.cls-18{fill:#fbbd89;}.cls-19{fill:#603813;}.cls-20{fill:#414042;}.cls-21{fill:#ef8971;}.cls-23{fill:#89aa77;}.cls-24{fill:#2c6d96;}.cls-25{fill:#63403d;}.cls-26{fill:#a7a9ac;}.cls-27{fill:#939598;}.cls-28{fill:#d1d3d4;}.cls-29{fill:#bf6d45;}.cls-30{fill:#dd9f7c;}</style><mask id="mask" x="-201.97" y="-10.56" width="631.51" height="438.34" maskUnits="userSpaceOnUse"><g id="mask0_87_101" data-name="mask0 87 101"><path class="cls-1" d="M113.78,233c174.39,0,315.75-54.51,315.75-121.76S288.17-10.56,113.78-10.56-202,44-202,111.2-60.61,233,113.78,233Z"/></g></mask><mask id="mask-2" x="38.54" y="51.79" width="135.97" height="118.59" maskUnits="userSpaceOnUse"><g id="mask1_87_101" data-name="mask1 87 101"><path class="cls-1" d="M170.42,100.57C170.42,75.94,140.9,56,104.48,56s-65.94,20-65.94,44.59a31.13,31.13,0,0,0,2.38,11.93v54.77H166.71v-51.9A32,32,0,0,0,170.42,100.57Z"/></g></mask></defs><path class="cls-2" d="M113.78,248.71c62.84,0,113.78-11.88,113.78-26.54s-50.94-26.53-113.78-26.53S0,207.52,0,222.17,50.94,248.71,113.78,248.71Z"/><g class="cls-3"><path class="cls-4" d="M88.44,165.2q-21.82,5.25-37.29-2.76c5.55-7,26.51-9.77,37.87-1.46Z"/><path class="cls-5" d="M87.11,163.79a18.6,18.6,0,0,1,.06-2.06c-6.48-3.93-13.42-4.49-20.7-2.58a18.25,18.25,0,0,1,8.25,2.3l-2.76.48C75.89,164.83,81.2,164.9,87.11,163.79Z"/><path class="cls-4" d="M90.23,166.77q-19.11,11.74-36.31,8.91c3.12-8.38,22.19-17.49,35.56-13.1Z"/><path class="cls-5" d="M88.53,165.85a18.35,18.35,0,0,1-.58-2c-7.37-1.73-14.15-.13-20.48,3.94a18.33,18.33,0,0,1,8.57-.36l-2.48,1.31C78.18,170.3,83.26,168.73,88.53,165.85Z"/><path class="cls-5" d="M91.84,163.22a4.18,4.18,0,1,0-4.31,4A4.17,4.17,0,0,0,91.84,163.22Z"/><path class="cls-6" d="M115,154.61H94.77V186.3H115Z"/><path class="cls-7" d="M94.77,157.36l20.22.07v5.26c-1.23,2.57-18.07,4.17-20.22.31Z"/><path class="cls-8" d="M143.38,175.43l-.17-.1c-4.83-3-12.79-5-24.86-8.9L115,167l-10.09,5.41-10.13-5.38-3.5-1c-12.07,3.9-26.95,9.43-27.08,9.51L65,284l78.05-1.68Z"/><path class="cls-4" d="M119.77,159.32a22.05,22.05,0,0,1-12.15,8.07,7.08,7.08,0,0,1-4.2-.14A47.52,47.52,0,0,1,87,157.51q-10.78,14,24.28,31.4c1.48-6.17,5.44-12.58,9.88-17.39a15,15,0,0,0,2.71-4.68C125.27,163.05,124.31,159.89,119.77,159.32Z"/><path class="cls-5" d="M117.84,158.46c-2.75,4.68-4.06,5.84-12.91,6.52-7.69.58-13.4-3.21-17.91-7.47a8.33,8.33,0,0,0-2.13,4.07,31.91,31.91,0,0,0,17.24,10.48,14.17,14.17,0,0,0,8.13-.47c5.19-1.91,9.66-5.35,13.76-9.79C123.35,160.37,119.66,158.63,117.84,158.46Z"/><path class="cls-9" d="M80.34,169.66l-7.49,2.62.61,35.05h9.87Z"/><path class="cls-9" d="M128.78,169.76l7.49,2.41-.61,35.26h-9.87Z"/><path class="cls-10" d="M144.44,249.41l-8.67-10.76V202.86l-17.85,4a61,61,0,0,1-26.61,0l-17.86-4v35.79l-8.66,10.76a10.55,10.55,0,0,0-2.33,7.16l1.27,26.11H145.5l1.27-26.11A10.55,10.55,0,0,0,144.44,249.41Z"/><path class="cls-1" d="M78.51,214a3.55,3.55,0,1,0-3.39-3.55A3.47,3.47,0,0,0,78.51,214Z"/><path class="cls-1" d="M130.72,214a3.55,3.55,0,1,0-3.38-3.55A3.47,3.47,0,0,0,130.72,214Z"/><path class="cls-11" d="M145,11.26c-21.49-16.34-67.42-13.6-82.86-.09a8.5,8.5,0,0,0-2.74,4.71c-3.26,15.88-6.25,22.8-11.19,28.28h111.1c-4.89-5.42-7.87-12.27-11.09-27.8A8.63,8.63,0,0,0,145,11.26Z"/><path class="cls-12" d="M103.79,73.56c33.53,0,60.72-9.87,60.72-22s-27.19-22-60.72-22-60.73,9.87-60.73,22S70.25,73.56,103.79,73.56Z"/><path class="cls-13" d="M131.58,44.15h27.69c-4.89-5.42-7.87-12.27-11.09-27.8a8.68,8.68,0,0,0-3.22-5.1,48.26,48.26,0,0,0-13.37-6.91C128.46,15.33,130.13,30.52,131.58,44.15Z"/><path class="cls-14" d="M103.79,39C46.62,39,.27,54.27.27,73.11a12.38,12.38,0,0,0,1.3,5.41l0,.06c.22.37.41.75.6,1.13,9.32,15.68,51.26,27.51,101.58,27.51C161,107.22,207.3,92,207.3,73.11S161,39,103.79,39Z"/><path class="cls-15" d="M103.79,42.34c55.47,0,100.75,14.37,103.39,32.43a11.59,11.59,0,0,0,.12-1.66C207.3,54.27,161,39,103.79,39S.27,54.27.27,73.11a11.48,11.48,0,0,0,.12,1.66C3,56.71,48.31,42.34,103.79,42.34Z"/><g class="cls-16"><path class="cls-17" d="M167.52,121.27c2.22-6.14,2.67-16.22,2.71-27.24a.3.3,0,0,1,.05-.15.27.27,0,0,1,.12-.09.28.28,0,0,1,.28.08A9.42,9.42,0,0,1,172,97a.09.09,0,0,0,0,.06l.06,0h.07a.1.1,0,0,0,.05,0c2.5-4,2.64-9.29,1.79-15.66H130.58v69Z"/><path class="cls-17" d="M49.47,121.27c-2.21-6.14-2.67-16.22-2.71-27.24a.23.23,0,0,0,0-.15.27.27,0,0,0-.12-.09.2.2,0,0,0-.15,0,.22.22,0,0,0-.13.08A9.64,9.64,0,0,0,45,97a.09.09,0,0,1,0,.06.07.07,0,0,1-.06,0h-.07a.1.1,0,0,1,0,0c-2.5-4-2.64-9.29-1.79-15.66H86.42v69Z"/><path class="cls-6" d="M59.7,142.3c-9.91,0-16.22-13.19-13.15-21.7a7.93,7.93,0,0,1,4.22-4.68c3.59-1.53,6.82.36,8.93,1.77Z"/><path class="cls-18" d="M59.32,137.59c-11-.48-13.31-20.34.12-15.56Z"/><path class="cls-19" d="M59.79,122.37a15,15,0,0,0-3.69-.78,7.3,7.3,0,0,0-1.87.09,5,5,0,0,0-1.75.63,4,4,0,0,0-1.33,1.29,5.28,5.28,0,0,0-.71,1.74,8.13,8.13,0,0,0-.2,1.9,15.19,15.19,0,0,0,.13,1.91,11,11,0,0,1,0-3.83A5.4,5.4,0,0,1,51,123.5a4.33,4.33,0,0,1,1.36-1.4,5.35,5.35,0,0,1,1.82-.73,8,8,0,0,1,1.95-.15,15.18,15.18,0,0,1,3.83.68Z"/><path class="cls-6" d="M157.35,142.3c9.91,0,16.23-13.19,13.15-21.7a7.93,7.93,0,0,0-4.22-4.68c-3.59-1.53-6.82.36-8.93,1.77Z"/><path class="cls-18" d="M157.61,122c13.43-4.78,11.17,15.08.13,15.56Z"/><path class="cls-19" d="M157.11,121.9a15.1,15.1,0,0,1,3.82-.68,8.07,8.07,0,0,1,2,.15,5.52,5.52,0,0,1,1.82.73,4.4,4.4,0,0,1,1.35,1.4,5.64,5.64,0,0,1,.68,1.82,11,11,0,0,1-.06,3.83,15.21,15.21,0,0,0,.15-1.91,8.71,8.71,0,0,0-.21-1.9,5.39,5.39,0,0,0-.7-1.74,4.13,4.13,0,0,0-1.34-1.29,5,5,0,0,0-1.75-.63,7.32,7.32,0,0,0-1.87-.09,15,15,0,0,0-3.69.78Z"/><path class="cls-6" d="M159.08,65.63h-101c-13.7,62.42-3.85,103.47,49.8,104.76h1.39C162.93,169.1,172.78,128.05,159.08,65.63Z"/><path class="cls-20" d="M89.34,125.35c2.36,0,4.28-3.07,4.28-6.85s-1.92-6.85-4.28-6.85-4.29,3.07-4.29,6.85S87,125.35,89.34,125.35Z"/><path class="cls-1" d="M90,118.15a2.64,2.64,0,1,0-2.09-2.58A2.37,2.37,0,0,0,90,118.15Z"/><path class="cls-21" d="M81,125.66H76.41A3.77,3.77,0,0,0,72.85,128a3.06,3.06,0,0,0,.64,3.19,4.71,4.71,0,0,0,3.6,1.58h2.43a7.51,7.51,0,0,0,2.79-.81c.12-.07,2.48-1.29,2.69-2.56a2.75,2.75,0,0,0-.83-2.52A4.39,4.39,0,0,0,81,125.66Z"/><path class="cls-20" d="M127.83,125.35c2.37,0,4.29-3.07,4.29-6.85s-1.92-6.85-4.29-6.85-4.29,3.07-4.29,6.85S125.46,125.35,127.83,125.35Z"/><path class="cls-1" d="M128.44,118.15a2.64,2.64,0,1,0-2.09-2.58A2.37,2.37,0,0,0,128.44,118.15Z"/><path class="cls-21" d="M136.15,125.66h4.61a3.77,3.77,0,0,1,3.56,2.38,3.06,3.06,0,0,1-.64,3.19,4.71,4.71,0,0,1-3.6,1.58h-2.43a7.51,7.51,0,0,1-2.79-.81c-.12-.07-2.48-1.29-2.69-2.56a2.75,2.75,0,0,1,.83-2.52A4.39,4.39,0,0,1,136.15,125.66Z"/><path class="cls-22" d="M107.92,133.53a1.25,1.25,0,0,0,.61-.06c3.73-1.1,4.27,3.08,1.27,3.46s-4.37-.71-5.29-2a1.13,1.13,0,0,1,.73-1.79A9.28,9.28,0,0,1,107.92,133.53Z"/><path class="cls-20" d="M127.08,106.76c-4.12.08-5.69-3.88-2.81-6.29a5.79,5.79,0,0,1,4.39-1.06c4.28.46,6.93,2,7.41,4.91a3.2,3.2,0,0,1-.93,2.88c-1.5,1.38-3.84.85-6.4-.16A4.46,4.46,0,0,0,127.08,106.76Z"/><path class="cls-20" d="M90.88,106.76c4.12.08,5.68-3.88,2.81-6.29a5.82,5.82,0,0,0-4.4-1.06c-4.28.46-6.93,2-7.4,4.91a3.19,3.19,0,0,0,.92,2.88c1.51,1.38,3.85.85,6.4-.16A4.51,4.51,0,0,1,90.88,106.76Z"/><path class="cls-22" d="M96,146c2.13.43,4.2.86,6.28,1.17a48,48,0,0,0,6.22.49,44.59,44.59,0,0,0,6.22-.38c2.08-.29,4.16-.71,6.29-1.14a21.24,21.24,0,0,1-6,2.59,24.06,24.06,0,0,1-6.54.84,24.84,24.84,0,0,1-6.52-1A22.79,22.79,0,0,1,96,146Z"/><path class="cls-22" d="M102.66,151.82c1.06,0,2.08.12,3.09.18s2,.11,3,.14,2,0,3,0,2,0,3.09,0a11.2,11.2,0,0,1-3,1,14.32,14.32,0,0,1-6.28-.17A11.2,11.2,0,0,1,102.66,151.82Z"/><path class="cls-17" d="M51.65,109.3c1.88,27.13,5.79,31,5.79,31-1.82-23.35,2.07-45.72,15.76-58.9H51.66S50.93,98.86,51.65,109.3Z"/><path class="cls-17" d="M165.34,109.3c-1.88,27.13-5.79,31-5.79,31,1.82-23.35-2.06-45.72-15.75-58.9h21.53S166.06,98.86,165.34,109.3Z"/><path class="cls-17" d="M63.47,94.35s7.54-11.91,13.14-16A19.54,19.54,0,0,0,79.72,88c1.07-4.89,2.2-8.74,3.75-11.37C93.63,85.57,104.09,90.6,115,89l-13.22-9.21c12.1,5.32,25,6.31,38.68,3.32-5.45-1.91-9.76-5.83-13.51-10.72C141.91,73.94,154,94,154,94l18.43-1.42c1.75-10.14-3.67-19.17-11.85-27.77l-46.45-13L64.37,57.48c-8,9.23-17.82,18.1-18.51,28.78Z"/></g><path class="cls-8" d="M141,174.75l2.4.68,54.57,38L190,227.91,143,205.51Z"/><path class="cls-1" d="M186.21,230.16l10.38-21.69c3.37,2.73,6.2,5.13,7.35,7.93l.24.88a.44.44,0,0,0,.24.27.37.37,0,0,0,.18,0,.27.27,0,0,0,.17-.06l2.55-1.58,7.93,10.38-4.66,16.44c-4.7.28-7.85-1.21-8.15-6a.35.35,0,0,0,0-.11.22.22,0,0,0-.07-.09l-.09-.06h-.11l-1.88.16a1,1,0,0,1-.25,0,.72.72,0,0,1-.21-.12.59.59,0,0,1-.15-.2.61.61,0,0,1-.07-.24l-.16-2.65a.46.46,0,0,0-.15-.31A.42.42,0,0,0,199,233,25.65,25.65,0,0,1,186.21,230.16Z"/><path class="cls-8" d="M64.19,175.56l.24,31.78L47.6,221.93a1.25,1.25,0,0,0-.38.62,1.35,1.35,0,0,0,0,.72l6.07,24.42L40,255.78c-7.55-11.42-15.18-26.63-16.82-33.6a3.52,3.52,0,0,1,.68-3C34.25,206.09,50.53,186.84,64.19,175.56Z"/><path class="cls-23" d="M64.75,249.45l-.32-42.12L47.6,221.93a34.61,34.61,0,0,1,5.85-8.2L65.61,201a1.13,1.13,0,0,1,.61-.34,1.09,1.09,0,0,1,.69,0,1.29,1.29,0,0,1,.55.43,1.23,1.23,0,0,1,.21.67l.56,43.3Z"/><path class="cls-23" d="M143,247.5l.32-41.85L162.91,215a23.09,23.09,0,0,0-6.51-6.48l-14.32-9.46a1.17,1.17,0,0,0-.6-.34,1.19,1.19,0,0,0-.7.06,1.21,1.21,0,0,0-.54.43,1.24,1.24,0,0,0-.22.67l-.56,43.3Z"/><path class="cls-24" d="M124.66,226.18h-40a.63.63,0,0,1-.43-.17.61.61,0,0,1-.17-.43v-7.19a.58.58,0,0,1,.6-.6h40a.59.59,0,0,1,.42.17.6.6,0,0,1,.18.43v7.19a.58.58,0,0,1-.18.43A.59.59,0,0,1,124.66,226.18ZM85.27,225h38.79v-6H85.27Z"/><path class="cls-24" d="M104.66,252.37a.53.53,0,0,1-.28-.07L85.83,242.2A3.3,3.3,0,0,1,84.54,241a3.39,3.39,0,0,1-.48-1.73V225.58a.62.62,0,0,1,.6-.6h20a.64.64,0,0,1,.23.05.62.62,0,0,1,.32.32.64.64,0,0,1,.05.23v26.19a.61.61,0,0,1-.08.3.58.58,0,0,1-.22.22A.61.61,0,0,1,104.66,252.37ZM85.27,226.18v13a2.19,2.19,0,0,0,.3,1.12,2.09,2.09,0,0,0,.84.8l17.65,9.63V226.18Z"/><path class="cls-24" d="M104.66,252.37a.52.52,0,0,1-.3-.08.58.58,0,0,1-.22-.22.61.61,0,0,1-.08-.3V225.58a.62.62,0,0,1,.6-.6h20a.6.6,0,0,1,.42.18.56.56,0,0,1,.18.42v13.64a3.43,3.43,0,0,1-1.77,3L105,252.3A.59.59,0,0,1,104.66,252.37Zm.6-26.19v24.59l17.66-9.63a2.27,2.27,0,0,0,.83-.8,2.22,2.22,0,0,0,.31-1.12v-13Z"/><path class="cls-25" d="M185.1,427.73a4.14,4.14,0,0,1-3.52-4.7l32.65-223.6a4.2,4.2,0,0,1,1.63-2.74,4.15,4.15,0,0,1,6.59,3.93L189.8,424.21a4.19,4.19,0,0,1-1.62,2.74,4.24,4.24,0,0,1-1.47.7A4.15,4.15,0,0,1,185.1,427.73Z"/><path class="cls-26" d="M214.33,184.86l12.14,1.76-2,13.69a3.27,3.27,0,0,1-.41,1.17,3.16,3.16,0,0,1-.83.92,3.13,3.13,0,0,1-2.35.59l-5.86-.85a3.22,3.22,0,0,1-1.16-.41,3,3,0,0,1-.92-.83,3.08,3.08,0,0,1-.6-2.35Z"/><path class="cls-26" d="M257,99.68a6.76,6.76,0,0,0-2.41-4.94l-.37-.32a1.58,1.58,0,0,0-.84-.38,1.62,1.62,0,0,0-.92.13,1.7,1.7,0,0,0-.7.6,1.72,1.72,0,0,0-.27.89c-.33,27.92-2,53.32-5.41,75.54a2,2,0,0,1-.81,1.33,2,2,0,0,1-1.51.39l-7.21-1a1.93,1.93,0,0,1-.77-.28,2.14,2.14,0,0,1-.61-.55,2.06,2.06,0,0,1-.34-1.58c4-21,4.36-45.91,3.18-72.54a6.92,6.92,0,0,0-.69-2.71A6.78,6.78,0,0,0,235.58,92l-.37-.32a1.58,1.58,0,0,0-.84-.38,1.62,1.62,0,0,0-.92.13,1.7,1.7,0,0,0-.7.6,1.72,1.72,0,0,0-.27.88c-.33,27.93-2,53.33-5.41,75.55a2,2,0,0,1-.81,1.33,2,2,0,0,1-1.51.39l-4.6-.67a2.1,2.1,0,0,1-1.38-.84,2,2,0,0,1-.33-.75,2.06,2.06,0,0,1,0-.82c4-21,4.37-45.92,3.19-72.54a6.8,6.8,0,0,0-.69-2.72,7,7,0,0,0-1.71-2.22l-.38-.32a1.7,1.7,0,0,0-.84-.38,1.66,1.66,0,0,0-.91.13,1.59,1.59,0,0,0-.7.61,1.55,1.55,0,0,0-.27.88c-.34,27.93-2,53.33-5.42,75.54a2,2,0,0,1-2.32,1.72l-6.68-1a2,2,0,0,1-.78-.28,2.07,2.07,0,0,1-.95-2.13c4-21,4.37-45.92,3.19-72.54a6.92,6.92,0,0,0-.69-2.71,6.78,6.78,0,0,0-1.72-2.22l-.37-.32a1.58,1.58,0,0,0-.84-.38,1.62,1.62,0,0,0-.92.13,1.7,1.7,0,0,0-.7.6,1.72,1.72,0,0,0-.27.88c-.34,28.78-2.12,54.87-5.72,77.56l-1.6,11a7.26,7.26,0,0,0,6.14,8.22l47.1,6.83a7.26,7.26,0,0,0,8.22-6.14l1.59-11C256.88,152.92,257.47,127.24,257,99.68Z"/><path class="cls-27" d="M244.09,188.29,197,181.47a7.25,7.25,0,0,1-6.13-8.22l-.46,3.2a7.24,7.24,0,0,0,6.13,8.21l47.1,6.83a7.26,7.26,0,0,0,8.22-6.14l.46-3.19a7.23,7.23,0,0,1-8.21,6.13Z"/><path class="cls-1" d="M214.08,219.28l5.93.48a3.23,3.23,0,0,1,2.76,2c.74,1.95.16,4.63-.91,5.49-2.79.91-7.2-.34-9.65-2.59Z"/><path class="cls-1" d="M212.21,224.71c2.51,2,6.47,3.43,9.64,2.58,1.49,1.62,1.62,5.49-.7,6.77-4,.5-8.32-.31-11.36-4.08Z"/><path class="cls-1" d="M221.15,234.06c.4,2.95-.55,5.18-2.76,6-4.07-.42-7.16-1.45-9.52-4.11-.91-2.29-.21-4.21.92-6C212.6,233.17,215.89,234.56,221.15,234.06Z"/><path class="cls-28" d="M221.85,227.29a9.37,9.37,0,0,1-2.57.45h-.66c-.22,0-.44,0-.66-.06s-.44-.07-.66-.1-.43-.1-.65-.15a6.6,6.6,0,0,1-.63-.2c-.21-.07-.41-.16-.62-.24l-.59-.29c-.2-.1-.39-.22-.58-.33a10,10,0,0,1-2-1.66,21.52,21.52,0,0,0,2.2,1.34l.58.28.58.25.6.22.6.18c.21.05.41.11.62.15s.41.08.63.12l.62.08.32,0c.11,0,.21,0,.32,0A18.35,18.35,0,0,0,221.85,227.29Z"/><path class="cls-28" d="M221.15,234.06a9.43,9.43,0,0,1-3.17.35,12.27,12.27,0,0,1-1.6-.2,11.93,11.93,0,0,1-1.56-.41,11.41,11.41,0,0,1-1.49-.62,10.81,10.81,0,0,1-1.38-.84,7.73,7.73,0,0,1-2.16-2.36,10.37,10.37,0,0,0,2.37,2.06,13.73,13.73,0,0,0,1.36.74,11.24,11.24,0,0,0,1.45.58,14,14,0,0,0,1.5.42c.51.12,1,.2,1.55.27A14.24,14.24,0,0,0,221.15,234.06Z"/><path class="cls-28" d="M209.79,230c-.22.48-.45,1-.63,1.44l-.14.36L209,232l-.05.18-.06.19,0,.18,0,.19,0,.19a6.33,6.33,0,0,0-.11,1.51,6.64,6.64,0,0,0,.27,1.53,3.85,3.85,0,0,1-.53-1.5,4.59,4.59,0,0,1,0-1.61l0-.2,0-.19.06-.2.06-.19.07-.19.08-.18.08-.19.09-.18A6.7,6.7,0,0,1,209.79,230Z"/><path class="cls-1" d="M205.55,219c.1-.25,2.36-3.55,3.54-5.27a3.33,3.33,0,0,1,.95-.92,3.25,3.25,0,0,1,1.24-.45,5.85,5.85,0,0,1,4.89,1.27,3.75,3.75,0,0,1,1.25,2.2,3.8,3.8,0,0,1-.43,2.49l-1.6,2.82a2.68,2.68,0,0,0-.32,1.62A10.17,10.17,0,0,1,215,226a3.68,3.68,0,0,1-3,2.92,3,3,0,0,1-3.4-2,4.9,4.9,0,0,1-.38-1.64c-.17-2.47,1-5.14,2.58-7.88L209,220.8Z"/><path class="cls-1" d="M208.15,225a7.89,7.89,0,0,1,.07-2.06c0-.17.05-.34.09-.51s.08-.33.12-.5l.15-.5c.06-.16.1-.33.16-.49s.12-.32.19-.48l.21-.47c.07-.16.15-.32.22-.47s.16-.3.25-.45a12.14,12.14,0,0,1,1.13-1.72c-.28.63-.58,1.24-.85,1.86-.14.31-.28.61-.4.92-.07.16-.13.31-.19.47l-.18.47c-.05.16-.11.32-.17.48l-.15.48c-.1.32-.19.64-.27,1A19.07,19.07,0,0,0,208.15,225Z"/><path class="cls-28" d="M211.43,229.11a3.2,3.2,0,0,1-3-2.18,5.32,5.32,0,0,1-.39-1.71,1.69,1.69,0,0,1,0-.23,5.71,5.71,0,0,1,.11-1.71c0-.08,0-.16,0-.24l0-.11c0-.16.05-.33.08-.48l.09-.29.06-.18,0-.2c0-.11.05-.22.08-.32l.12-.33.07-.17a.6.6,0,0,1,.09-.15l0-.06.33.13-.09.15a.21.21,0,0,0,0,.06c0,.06-.05.12-.07.17l-.12.31-.06.29a1.6,1.6,0,0,1-.05.21l-.06.2c0,.09-.05.18-.08.27s-.05.3-.08.45v.11l0,.24a5.58,5.58,0,0,0-.12,1.63h0a1.79,1.79,0,0,0,0,.23,5.11,5.11,0,0,0,.36,1.59,2.81,2.81,0,0,0,3.22,1.93,3.41,3.41,0,0,0,1.87-.94,3.49,3.49,0,0,0,1-1.84,10.15,10.15,0,0,0,.1-3.16,2.8,2.8,0,0,1,.35-1.72l1.59-2.82a3.58,3.58,0,0,0-.78-4.47,5.69,5.69,0,0,0-4.75-1.23,3.12,3.12,0,0,0-1.17.43,3.08,3.08,0,0,0-.9.86c-1.18,1.66-1.7,2.42-1.7,2.42l-.29-.19s.53-.77,1.7-2.43a3.56,3.56,0,0,1,1-1,3.52,3.52,0,0,1,1.3-.48,6,6,0,0,1,5,1.32,4,4,0,0,1,1.3,2.3,3.87,3.87,0,0,1-.45,2.6l-1.59,2.82a2.44,2.44,0,0,0-.3,1.52,10.36,10.36,0,0,1-.11,3.24,3.81,3.81,0,0,1-3.74,3.11Z"/><path class="cls-29" d="M138.68,13.38c-1.55-.63-3.07-1.28-4.62-1.84S131,10.45,129.39,10s-3.17-.79-4.79-1.08-3.25-.49-4.91-.68a22.19,22.19,0,0,1,5-.14,26.87,26.87,0,0,1,5,.89,28.26,28.26,0,0,1,4.72,1.78A26.35,26.35,0,0,1,138.68,13.38Z"/><path class="cls-29" d="M138.68,22.3c-1.55-.64-3.07-1.28-4.62-1.85s-3.09-1.09-4.67-1.52-3.17-.79-4.79-1.09-3.25-.49-4.91-.68a22.18,22.18,0,0,1,5-.13,26.06,26.06,0,0,1,5,.89,27.41,27.41,0,0,1,4.72,1.78A25,25,0,0,1,138.68,22.3Z"/><path class="cls-29" d="M138.68,18a30.92,30.92,0,0,1-3-1.4l-.73-.37-.73-.35c-.25-.11-.49-.23-.73-.32l-.38-.15-.37-.14a22.34,22.34,0,0,0-3.12-.81c-1.07-.22-2.16-.41-3.26-.69a17.29,17.29,0,0,1,3.37-.13,12,12,0,0,1,3.36.64,12.61,12.61,0,0,1,1.59.71q.74.42,1.44.9A26.32,26.32,0,0,1,138.68,18Z"/><path class="cls-29" d="M141.08,28c-1.73-.75-3.46-1.47-5.2-2.13s-3.5-1.28-5.28-1.83-3.56-1-5.38-1.44a46.87,46.87,0,0,0-5.53-.91,21.53,21.53,0,0,1,5.67.09A35.11,35.11,0,0,1,130.91,23a38.67,38.67,0,0,1,5.29,2.07A30.71,30.71,0,0,1,141.08,28Z"/><path class="cls-29" d="M142.36,33c-1.83-.79-3.66-1.5-5.51-2.14s-3.73-1.22-5.61-1.74-3.79-1-5.72-1.36a57,57,0,0,0-5.83-.9,25.37,25.37,0,0,1,6,.08,40.52,40.52,0,0,1,5.86,1.17,43.2,43.2,0,0,1,5.63,2A27.42,27.42,0,0,1,142.36,33Z"/><path class="cls-30" d="M65.31,13.38c1.54-.63,3.06-1.28,4.61-1.84S73,10.45,74.59,10s3.17-.79,4.79-1.08,3.25-.49,4.92-.68a22.27,22.27,0,0,0-5-.14,27,27,0,0,0-5,.89,29.05,29.05,0,0,0-4.71,1.78A25.93,25.93,0,0,0,65.31,13.38Z"/><path class="cls-30" d="M65.31,22.3c1.54-.64,3.06-1.28,4.61-1.85s3.1-1.09,4.67-1.52,3.17-.79,4.79-1.09,3.25-.49,4.92-.68a22.27,22.27,0,0,0-5-.13,26.2,26.2,0,0,0-5,.89A27.3,27.3,0,0,0,69.6,19.7,24.64,24.64,0,0,0,65.31,22.3Z"/><path class="cls-30" d="M65.31,18a31.86,31.86,0,0,0,3-1.4l.73-.37.73-.35c.25-.11.49-.23.74-.32l.37-.15.37-.14a22.34,22.34,0,0,1,3.12-.81c1.08-.22,2.17-.41,3.27-.69a17.36,17.36,0,0,0-3.38-.13,12.11,12.11,0,0,0-3.36.64,13.15,13.15,0,0,0-1.58.71q-.75.42-1.44.9A24.18,24.18,0,0,0,65.31,18Z"/><path class="cls-30" d="M62.9,28c1.74-.75,3.46-1.47,5.21-2.13s3.5-1.28,5.27-1.83S77,23,78.76,22.6a47.21,47.21,0,0,1,5.53-.91,21.54,21.54,0,0,0-5.67.09A35,35,0,0,0,73.08,23a38.17,38.17,0,0,0-5.29,2.07A30.81,30.81,0,0,0,62.9,28Z"/><path class="cls-30" d="M61.63,33c1.82-.79,3.65-1.5,5.51-2.14s3.72-1.22,5.61-1.74,3.79-1,5.71-1.36a57.39,57.39,0,0,1,5.83-.9,25.29,25.29,0,0,0-6,.08,40.25,40.25,0,0,0-5.86,1.17,41.82,41.82,0,0,0-5.63,2A26.84,26.84,0,0,0,61.63,33Z"/></g></svg>