<svg id="Layer_1" data-name="Layer 1" xmlns="http://www.w3.org/2000/svg" xmlns:xlink="http://www.w3.org/1999/xlink" viewBox="0 0 227.56 200.27"><defs><style>.cls-1{fill:#fff;}.cls-2{fill:#e5e0da;}.cls-3{mask:url(#mask);}.cls-4{fill:#fbd3a8;}.cls-12,.cls-5{fill:#f8a364;}.cls-5{opacity:0.6;isolation:isolate;}.cls-6{fill:#bcd3af;}.cls-7{fill:#563631;}.cls-8{fill:#fbbd89;}.cls-9{fill:#603813;}.cls-10{fill:#414042;}.cls-11{fill:#ef8971;}.cls-13{fill:#afc6a1;}.cls-14{fill:#d1d3d4;}</style><mask id="mask" x="-213.05" y="-60.4" width="631.51" height="294.53" maskUnits="userSpaceOnUse"><g id="mask0_87_37" data-name="mask0 87 37"><path class="cls-1" d="M102.71,183.12c174.38,0,315.75-54.51,315.75-121.76S277.09-60.4,102.71-60.4-213-5.89-213,61.36-71.68,183.12,102.71,183.12Z"/></g></mask></defs><path class="cls-2" d="M113.78,200.27c62.84,0,113.78-11.87,113.78-26.53s-50.94-26.53-113.78-26.53S0,159.09,0,173.74,50.94,200.27,113.78,200.27Z"/><g class="cls-3"><path class="cls-4" d="M120.12,136.46h20.21V104.77H120.12Z"/><path class="cls-5" d="M140.33,107.51l-20.21.08v5.26c1.23,2.57,18.07,4.17,20.21.31Z"/><path class="cls-6" d="M91.72,125.59l.17-.1c4.83-3,12.79-5,24.87-8.9l3.36.58,10.08,5.42,10.13-5.38,3.51-1c12.07,3.9,26.95,9.43,27.08,9.51l-.83,108.41L92,232.47Z"/><path class="cls-7" d="M78.39,66.89c-2.06-5.71-2.49-15.09-2.52-25.34a.24.24,0,0,0-.05-.14.2.2,0,0,0-.11-.09h-.14a.2.2,0,0,0-.12.08,9,9,0,0,0-1.26,2.89l0,.05-.06,0H74l0,0c-2.33-3.76-2.46-8.65-1.67-14.57h40.45V93.93Z"/><path class="cls-7" d="M183.36,66.89c2.06-5.71,2.49-15.09,2.52-25.34a.24.24,0,0,1,.05-.14.24.24,0,0,1,.11-.09h.14a.2.2,0,0,1,.12.08,9,9,0,0,1,1.26,2.89l0,.05.06,0h.07a.08.08,0,0,0,0,0c2.33-3.76,2.46-8.65,1.67-14.57H149V93.93Z"/><path class="cls-4" d="M176.88,86.46c9.21,0,15.09-12.27,12.23-20.19a7.35,7.35,0,0,0-3.93-4.35c-3.34-1.43-6.34.33-8.31,1.64Z"/><path class="cls-8" d="M177.23,82.08c10.28-.45,12.39-18.92-.11-14.47Z"/><path class="cls-9" d="M176.79,67.92a13.9,13.9,0,0,1,3.43-.73,7.87,7.87,0,0,1,1.75.08,5.07,5.07,0,0,1,1.63.59,3.84,3.84,0,0,1,1.24,1.2,5,5,0,0,1,.66,1.63,8.69,8.69,0,0,1,.18,1.76,13.2,13.2,0,0,1-.12,1.78,10.19,10.19,0,0,0,.05-3.57A5.16,5.16,0,0,0,185,69a4.26,4.26,0,0,0-1.26-1.31A5.21,5.21,0,0,0,182,67a7.3,7.3,0,0,0-1.81-.14,14.3,14.3,0,0,0-3.56.63Z"/><path class="cls-4" d="M86,86.46c-9.22,0-15.09-12.27-12.23-20.19a7.35,7.35,0,0,1,3.93-4.35C81,60.49,84,62.25,86,63.56Z"/><path class="cls-8" d="M85.77,67.61c-12.5-4.45-10.4,14-.12,14.47Z"/><path class="cls-9" d="M86.23,67.48a14.3,14.3,0,0,0-3.56-.63,7.34,7.34,0,0,0-1.81.14,5.21,5.21,0,0,0-1.7.67A4.15,4.15,0,0,0,77.9,69a5.16,5.16,0,0,0-.63,1.69,10.43,10.43,0,0,0,0,3.57,15.06,15.06,0,0,1-.13-1.78,8,8,0,0,1,.19-1.76A4.83,4.83,0,0,1,78,69.06a3.74,3.74,0,0,1,1.24-1.2,4.93,4.93,0,0,1,1.62-.59,7.87,7.87,0,0,1,1.75-.08,14.07,14.07,0,0,1,3.44.73Z"/><path class="cls-4" d="M84.4,15.12h94C191.12,73.2,182,111.4,132,112.6h-1.29C80.82,111.4,71.65,73.2,84.4,15.12Z"/><path class="cls-10" d="M149.3,70.69c2.2,0,4-2.85,4-6.37S151.5,58,149.3,58s-4,2.85-4,6.37S147.09,70.69,149.3,70.69Z"/><path class="cls-1" d="M148.73,64a2.46,2.46,0,1,0-1.94-2.4A2.21,2.21,0,0,0,148.73,64Z"/><path class="cls-11" d="M157,71h4.29a3.49,3.49,0,0,1,3.31,2.22,2.84,2.84,0,0,1-.6,3,4.35,4.35,0,0,1-3.34,1.47h-2.27a7,7,0,0,1-2.59-.75c-.11-.07-2.31-1.2-2.51-2.39a2.59,2.59,0,0,1,.78-2.34A4.08,4.08,0,0,1,157,71Z"/><path class="cls-10" d="M113.47,70.69c2.21,0,4-2.85,4-6.37s-1.79-6.37-4-6.37-4,2.85-4,6.37S111.27,70.69,113.47,70.69Z"/><path class="cls-1" d="M112.91,64a2.46,2.46,0,1,0-1.94-2.4A2.21,2.21,0,0,0,112.91,64Z"/><path class="cls-11" d="M105.74,71h-4.29a3.49,3.49,0,0,0-3.31,2.22,2.82,2.82,0,0,0,.59,3,4.39,4.39,0,0,0,3.35,1.47h2.27a7.11,7.11,0,0,0,2.59-.75c.11-.07,2.31-1.2,2.51-2.39a2.59,2.59,0,0,0-.78-2.34A4.11,4.11,0,0,0,105.74,71Z"/><path class="cls-12" d="M132,78.3a1.11,1.11,0,0,1-.57-.06c-3.47-1-4,2.87-1.18,3.22s4.06-.65,4.92-1.8A1.05,1.05,0,0,0,134.5,78,8.91,8.91,0,0,0,132,78.3Z"/><path class="cls-10" d="M114.18,53.4c3.83.07,5.28-3.61,2.61-5.86a5.44,5.44,0,0,0-4.09-1c-4,.43-6.45,1.84-6.89,4.57a3,3,0,0,0,.86,2.68c1.4,1.29,3.58.79,6-.14A3.89,3.89,0,0,1,114.18,53.4Z"/><path class="cls-10" d="M147.87,53.4c-3.84.07-5.29-3.61-2.62-5.86a5.45,5.45,0,0,1,4.09-1c4,.43,6.45,1.84,6.89,4.57a3,3,0,0,1-.86,2.68c-1.4,1.29-3.58.79-6-.14A3.87,3.87,0,0,0,147.87,53.4Z"/><path class="cls-12" d="M143.07,89.89c-2,.4-3.91.8-5.85,1.08a43,43,0,0,1-5.79.46,41.34,41.34,0,0,1-5.78-.35c-1.94-.26-3.87-.66-5.85-1.06a19.84,19.84,0,0,0,5.57,2.41,22.3,22.3,0,0,0,6.08.78,23.51,23.51,0,0,0,6.07-.89A21.63,21.63,0,0,0,143.07,89.89Z"/><path class="cls-12" d="M136.9,95.32c-1,0-1.93.11-2.87.17s-1.87.11-2.8.14-1.86,0-2.8,0-1.89-.05-2.88,0a10.12,10.12,0,0,0,2.78.93,13.69,13.69,0,0,0,5.84-.15A10.39,10.39,0,0,0,136.9,95.32Z"/><path class="cls-7" d="M184.36,55.76C182.62,81,179,84.56,179,84.56c1.69-21.73-1.92-42.55-14.66-54.81h20S185,46,184.36,55.76Z"/><path class="cls-7" d="M78.58,55.76C80.32,81,84,84.56,84,84.56,82.27,62.83,85.88,42,98.62,29.75h-20S77.9,46,78.58,55.76Z"/><path class="cls-7" d="M173.38,41.85s-7-11.08-12.23-14.88a18.21,18.21,0,0,1-2.9,9c-1-4.55-2-8.13-3.49-10.58-9.45,8.32-19.18,13-29.37,11.53l12.3-8.57c-11.26,5-23.28,5.88-36,3.09,5.07-1.78,9.08-5.42,12.57-10-13.88,1.43-25.13,20.1-25.13,20.1L72,40.21c-1.62-9.43,1.57-20.14,11-25.84,9.62-5.79,31.34-13.3,42.53-14.2,11.61-.92,36.69,1.94,47,7.37,10.05,5.3,16.58,16.85,17.22,26.78Z"/><path class="cls-6" d="M94.13,124.91l-2.41.68-54.56,38,7.91,14.44,47.07-22.4Z"/><path class="cls-1" d="M48.9,180.32l-10.39-21.7c-3.36,2.74-6.19,5.13-7.34,7.93l-.24.89a.51.51,0,0,1-.09.16.49.49,0,0,1-.15.1.4.4,0,0,1-.19,0,.49.49,0,0,1-.17-.06l-2.55-1.58-7.93,10.38,4.67,16.44c4.69.28,7.85-1.21,8.15-6a.43.43,0,0,1,0-.11l.07-.09.1,0,.1,0,1.88.16a.52.52,0,0,0,.25,0,.53.53,0,0,0,.22-.12.7.7,0,0,0,.15-.19,1.05,1.05,0,0,0,.06-.24l.17-2.66a.41.41,0,0,1,.14-.3.47.47,0,0,1,.32-.12A25.78,25.78,0,0,0,48.9,180.32Z"/><path class="cls-6" d="M170.92,125.72l-.25,31.78,16.84,14.59a1.33,1.33,0,0,1,.38.62,1.26,1.26,0,0,1,0,.72l-6.06,24.42,13.32,8.09c7.55-11.42,15.17-26.63,16.82-33.6a3.71,3.71,0,0,0,0-1.59,3.66,3.66,0,0,0-.69-1.43C200.85,156.26,184.57,137,170.92,125.72Z"/><path class="cls-13" d="M170.35,199.61l.32-42.12,16.84,14.6a35.19,35.19,0,0,0-5.85-8.2L169.5,151.18a1.26,1.26,0,0,0-.61-.35,1.2,1.2,0,0,0-1.24.49,1.16,1.16,0,0,0-.21.67l-.56,43.3Z"/><path class="cls-13" d="M92.16,197.65l-.32-41.84-19.65,9.35a23.09,23.09,0,0,1,6.51-6.48L93,149.22a1.17,1.17,0,0,1,.6-.34,1.28,1.28,0,0,1,.7.05,1.24,1.24,0,0,1,.55.44,1.26,1.26,0,0,1,.21.66l.56,43.31Z"/><path class="cls-1" d="M21,169.44l-5.94.49a3.21,3.21,0,0,0-2.75,2c-.75,1.95-.16,4.64.91,5.49,2.79.92,7.19-.34,9.64-2.58Z"/><path class="cls-1" d="M22.89,174.87c-2.5,2-6.47,3.43-9.64,2.58-1.48,1.62-1.61,5.49.7,6.77,4,.5,8.32-.31,11.36-4.07Z"/><path class="cls-1" d="M14,184.22c-.39,2.95.56,5.17,2.76,6,4.07-.42,7.17-1.45,9.53-4.11.91-2.29.2-4.21-.93-6C22.51,183.33,19.22,184.72,14,184.22Z"/><path class="cls-14" d="M13.25,177.45a9.38,9.38,0,0,0,2.58.45h.66c.22,0,.44,0,.66-.06s.43-.07.66-.1.43-.1.64-.15.43-.13.64-.2.41-.16.61-.24.4-.19.6-.29a5.3,5.3,0,0,0,.57-.33,9.83,9.83,0,0,0,2-1.66,21.66,21.66,0,0,1-2.21,1.34l-.57.28-.59.24-.59.22-.61.19-.61.15-.63.11c-.2,0-.42.07-.63.09l-.31,0-.32,0A17.12,17.12,0,0,1,13.25,177.45Z"/><path class="cls-14" d="M14,184.22a9.43,9.43,0,0,0,3.17.35,12.06,12.06,0,0,0,1.6-.2,11.93,11.93,0,0,0,1.56-.41,10.87,10.87,0,0,0,1.49-.62,9.58,9.58,0,0,0,1.38-.84,7.61,7.61,0,0,0,2.16-2.36A10.32,10.32,0,0,1,23,182.2a13.88,13.88,0,0,1-1.37.74,12.17,12.17,0,0,1-1.45.58,12.82,12.82,0,0,1-1.5.42c-.51.12-1,.2-1.54.27A14.33,14.33,0,0,1,14,184.22Z"/><path class="cls-14" d="M25.31,180.14c.23.48.45,1,.63,1.44,0,.11.09.24.14.36l.06.18.05.18.06.19.05.18,0,.19,0,.19a6.33,6.33,0,0,1,.11,1.51,7.2,7.2,0,0,1-.26,1.53,4,4,0,0,0,.52-1.5,4.58,4.58,0,0,0,0-1.61l0-.2-.05-.19-.05-.2-.07-.19-.07-.19-.08-.18-.08-.19a1.51,1.51,0,0,0-.09-.18A6.7,6.7,0,0,0,25.31,180.14Z"/><path class="cls-1" d="M17.45,169.12c.16.2,3.27,2.74,4.88,4a3.31,3.31,0,0,0,2.5.69,5.79,5.79,0,0,0,4.32-2.6,3.74,3.74,0,0,0-.54-4.73l-2.32-2.25a2.63,2.63,0,0,1-.77-1.47,10,10,0,0,0-1-3.05A3.57,3.57,0,0,0,23,158.21a3.68,3.68,0,0,0-2.16-.4,3,3,0,0,0-2.69,2.92,5.35,5.35,0,0,0,.09,1.69c.54,2.41,2.42,4.64,4.71,6.82l-2.64-2.84Z"/><path class="cls-1" d="M18.26,162.65a8,8,0,0,0,.65,1.95l.23.46c.09.15.17.3.27.45s.18.29.28.43.19.29.3.43l.31.41.33.39c.12.13.23.26.35.38l.36.37a13.22,13.22,0,0,0,1.57,1.32l-1.34-1.53c-.22-.27-.44-.52-.65-.79l-.31-.39c-.1-.13-.21-.26-.3-.4l-.3-.41c-.1-.14-.19-.28-.28-.42s-.37-.56-.54-.85Q18.68,163.57,18.26,162.65Z"/><path class="cls-14" d="M20.24,157.75A3.2,3.2,0,0,0,18,160.7a5.36,5.36,0,0,0,.1,1.74l.06.23a5.92,5.92,0,0,0,.59,1.62l.11.21.05.1a3.45,3.45,0,0,0,.21.43,2.46,2.46,0,0,0,.17.27s.07.1.1.16a1,1,0,0,1,.1.17,1.64,1.64,0,0,0,.16.29l.21.28.11.14a.49.49,0,0,0,.13.12l.06,0,.28-.21a.71.71,0,0,0-.13-.12.1.1,0,0,1-.06-.05,1.34,1.34,0,0,1-.11-.14,2.34,2.34,0,0,1-.2-.27l-.15-.25a1.14,1.14,0,0,0-.1-.19c0-.07-.08-.12-.11-.18l-.16-.23c-.06-.12-.14-.27-.2-.41l-.05-.1-.11-.22a6,6,0,0,1-.56-1.53v0l-.06-.22a5,5,0,0,1-.09-1.63A2.83,2.83,0,0,1,20.86,158a3.58,3.58,0,0,1,2.06.38,3.52,3.52,0,0,1,1.48,1.48,10.06,10.06,0,0,1,1,3,2.83,2.83,0,0,0,.82,1.56l2.33,2.26a3.53,3.53,0,0,1,1.06,2.16,3.57,3.57,0,0,1-.55,2.34,5.67,5.67,0,0,1-4.2,2.53,3.3,3.3,0,0,1-1.25-.09,3.17,3.17,0,0,1-1.11-.57c-1.59-1.26-2.3-1.84-2.31-1.85l-.22.27s.72.59,2.31,1.85a3.47,3.47,0,0,0,1.24.63,3.43,3.43,0,0,0,1.39.1,6,6,0,0,0,4.45-2.69,3.92,3.92,0,0,0-.57-4.94l-2.32-2.25a2.51,2.51,0,0,1-.72-1.37,10.33,10.33,0,0,0-1-3.11A4,4,0,0,0,23.08,158a3.64,3.64,0,0,0-2.84-.28Z"/></g></svg>