<svg width="41" height="38" viewBox="0 0 41 38" fill="none" xmlns="http://www.w3.org/2000/svg">
<path d="M40.6247 14.1653C40.5612 13.9934 40.4503 13.8424 40.3044 13.7292C40.1586 13.616 39.9836 13.5452 39.7992 13.5246L27.2165 12.1083L21.5909 1.08885C21.5077 0.926039 21.3803 0.789205 21.2228 0.693597C21.0654 0.597989 20.8841 0.547363 20.6991 0.547363C20.5142 0.547363 20.3329 0.597989 20.1754 0.693597C20.018 0.789205 19.8905 0.926039 19.8073 1.08885L14.1652 12.1331L1.61974 13.9911C1.43712 14.0182 1.26574 14.0948 1.12467 14.2123C0.983605 14.3298 0.878403 14.4836 0.820784 14.6566C0.763165 14.8295 0.755391 15.0149 0.798329 15.1919C0.841268 15.369 0.933232 15.5308 1.06398 15.6594L10.0441 24.4834L8.48596 36.6925C8.46258 36.8734 8.49069 37.0572 8.56716 37.2233C8.64364 37.3894 8.76545 37.5312 8.919 37.633C9.07255 37.7348 9.25178 37.7924 9.43668 37.7996C9.62157 37.8067 9.80484 37.7631 9.966 37.6735L20.9556 31.5734L31.8886 37.5547C32.0503 37.6431 32.2338 37.6855 32.4186 37.6772C32.6033 37.6688 32.7821 37.6101 32.935 37.5075C33.0879 37.405 33.2089 37.2625 33.2846 37.0962C33.3602 36.9298 33.3875 36.746 33.3634 36.5652L31.7122 24.2308L40.412 15.1785C40.5393 15.0457 40.6266 14.8806 40.6642 14.7017C40.7017 14.5227 40.6881 14.337 40.6247 14.1653Z" fill="#563631"/>
</svg>
