<svg width="40" height="39" viewBox="0 0 40 39" fill="none" xmlns="http://www.w3.org/2000/svg">
<path d="M39.5527 14.5774C39.4898 14.4045 39.3798 14.2526 39.2352 14.1388C39.0906 14.025 38.9172 13.9537 38.7343 13.9331L26.2608 12.5086L20.6839 1.42641C20.6014 1.26267 20.4751 1.12506 20.319 1.0289C20.1629 0.93275 19.9832 0.881836 19.7998 0.881836C19.6165 0.881836 19.4368 0.93275 19.2807 1.0289C19.1246 1.12506 18.9982 1.26267 18.9158 1.42641L13.3226 12.5336L0.885824 14.4022C0.704788 14.4295 0.534885 14.5065 0.395042 14.6247C0.2552 14.7428 0.150909 14.8975 0.0937897 15.0714C0.03667 15.2454 0.0289639 15.4318 0.0715301 15.6098C0.114096 15.7879 0.205263 15.9507 0.334874 16.08L9.23712 24.9543L7.69253 37.2329C7.66935 37.4149 7.69722 37.5997 7.77303 37.7667C7.84884 37.9338 7.9696 38.0764 8.12182 38.1788C8.27404 38.2812 8.45172 38.3392 8.63501 38.3464C8.8183 38.3535 8.99997 38.3096 9.15974 38.2195L20.0541 32.0847L30.8923 38.1001C31.0527 38.189 31.2346 38.2316 31.4177 38.2232C31.6009 38.2149 31.7781 38.1558 31.9297 38.0526C32.0813 37.9495 32.2012 37.8062 32.2762 37.6389C32.3512 37.4716 32.3782 37.2868 32.3543 37.105L30.7175 24.7002L39.3418 15.5963C39.468 15.4628 39.5546 15.2967 39.5918 15.1168C39.6291 14.9369 39.6155 14.7501 39.5527 14.5774Z" fill="#97B788"/>
</svg>
